<svg width="20" height="20" viewBox="0 0 20 20" fill="none" xmlns="http://www.w3.org/2000/svg">
<mask id="mask0_10433_125623" style="mask-type:luminance" maskUnits="userSpaceOnUse" x="0" y="-1" width="21" height="21">
<path d="M0.00195312 -0.000976562H20.002V19.999H0.00195312V-0.000976562Z" fill="white"/>
</mask>
<g mask="url(#mask0_10433_125623)">
<path d="M19.2207 13.8402H16.1868C14.8924 13.8402 13.8431 14.8895 13.8431 16.1839V19.2178M19.2207 13.8402C19.2207 14.824 18.8299 15.7675 18.1343 16.463L16.466 18.1313C15.7704 18.827 14.8269 19.2178 13.8431 19.2178M19.2207 13.8402V4.69238C19.2207 3.65484 18.8085 2.65977 18.0749 1.92609C17.3412 1.19246 16.3461 0.780273 15.3086 0.780273H4.69531C3.65777 0.780273 2.6627 1.19246 1.92902 1.92609C1.19539 2.65977 0.783203 3.65484 0.783203 4.69238V15.3057C0.783203 16.3432 1.19539 17.3383 1.92902 18.072C2.6627 18.8056 3.65777 19.2178 4.69531 19.2178H13.0749H13.8431M5.39258 14.6084H10.002M5.39258 5.38965H14.6113M5.39258 9.99902H14.6113" stroke="#1D2939" stroke-width="1.5625" stroke-miterlimit="10" stroke-linecap="round" stroke-linejoin="round"/>
</g>
</svg>
